<?xml version="1.0" encoding="UTF-8"?>
<svg id="logo" xmlns="http://www.w3.org/2000/svg" viewBox="0 0 175.57 175.57">
  <defs>
    <style>
      .cls-1 {
        fill: #f26722;
      }

      .cls-2 {
        fill: #2c3086;
      }

      @media (prefers-color-scheme: dark) {
        .cls-2 {
          fill: #fff;
        }
      }
    </style>
  </defs>
  <g id="Logo">
    <g id="Fan">
      <path class="cls-1" d="M113.59,154.6s20.32-82.37-22.03-81.48c0,0,32.5-14.18,45.24,46.3,3.34,15.87-6.79,31.49-22.61,35.04-.2.04-.4.09-.6.13Z"/>
      <path class="cls-2" d="M103.22,83.35s21.41,5.54,5.29,72.48c0,0-37.04,7.24-57.2-13.38,0,0,38.61-3.42,51.15-24.24,0,0-5.22,18.26-20.97,23.34,0,0,16.33-.35,23-4.04,0,0,12.76-43.03-1.28-54.16Z"/>
      <path class="cls-1" d="M20.97,113.59s82.37,20.32,81.48-22.03c0,0,14.18,32.5-46.3,45.24-15.87,3.34-31.49-6.79-35.04-22.61-.04-.2-.09-.4-.13-.6Z"/>
      <path class="cls-2" d="M92.21,103.25c-.25.86-6.94,21.04-72.47,5.27,0,0-5.39-27.56,6.37-48.07L.35,51.32h32.77s3.43,38.58,24.22,51.14c-.69-.2-18.34-5.52-23.32-20.95.02.59.42,16.44,4.04,22.99,0,0,42.98,12.75,54.14-1.25h.01Z"/>
      <path class="cls-1" d="M84.01,102.45s-3.32,1.45-8.24,1.45c-10.5,0-28.33-6.58-37.01-47.75-2.29-10.88,1.75-21.64,9.61-28.46l-18.94-6.72h32.55s-20.32,82.37,22.03,81.48Z"/>
      <path class="cls-1" d="M154.6,61.98s-82.37-20.32-81.48,22.03c0,0-14.18-32.5,46.3-45.24,15.87-3.34,31.49,6.79,35.04,22.61.04.2.09.4.13.6Z"/>
      <path class="cls-2" d="M83.35,72.35s5.54-21.41,72.48-5.29c0,0,7.24,37.04-13.38,57.2,0,0-3.42-38.61-24.24-51.15,0,0,18.26,5.22,23.34,20.97,0,0-.35-16.33-4.04-23,0,0-43.03-12.76-54.16,1.28Z"/>
      <path class="cls-2" d="M72.35,92.22s-21.41-5.54-5.29-72.48c0,0,37.04-7.24,57.2,13.38,0,0-38.61,3.42-51.15,24.24,0,0,5.22-18.26,20.97-23.34,0,0-16.33.35-23,4.04,0,0-12.76,43.03,1.28,54.16Z"/>
    </g>
  </g>
</svg>
