<?xml version="1.0" encoding="UTF-8"?>
<svg id="Layer_2" data-name="Layer 2" xmlns="http://www.w3.org/2000/svg" viewBox="0 0 299.06 262.1">
  <defs>
    <style>
      .cls-1, .cls-2 {
        fill: none;
      }

      .cls-3 {
        fill: #33afe2;
      }

      .cls-2 {
        stroke: #33afe2;
        stroke-linecap: round;
        stroke-miterlimit: 10;
        stroke-width: 3px;
      }
    </style>
  </defs>
  <g id="IRL">
    <g>
      <g id="Text">
        <g id="IRL_Logo" data-name="IRL Logo">
          <g id="I">
            <path id="Stick" class="cls-3" d="M20.71,189.61h0C9.27,189.61-.01,180.34,0,168.85l.19-102.4c.02-11.44,9.32-20.76,20.8-20.76h0c11.44,0,20.73,9.27,20.71,20.76l-.19,102.4c-.02,11.44-9.32,20.76-20.8,20.76Z"/>
            <path id="Dot" class="cls-3" d="M20.96,41.51h0C9.52,41.51.23,32.24.25,20.76H.25C.27,9.31,9.57,0,21.05,0h0c11.44,0,20.73,9.27,20.71,20.76h0c-.02,11.44-9.32,20.76-20.8,20.76Z"/>
          </g>
          <path id="R" class="cls-3" d="M64.06.04h59.61C140.5.04,178.01.04,177.96,50.71c-.08,45.18-42.95,52.17-42.95,52.17l46.93,63.17c.44.6.71,1.27,1.19,1.91,4.39,5.87,1.73,13.99-6.07,19-8.71,5.61-18.76,2.66-24.92-4.97-3.25-4.04-40.79-56.51-40.79-56.51,0,0-13.94-17.95-25.87-17.95h-16.04c-1.08,0-2.15-.11-3.17-.37-3.75-.9-10.73-6.4-10.69-14.77.03-11,7.73-14.44,14.05-14.44l48.02-.19c6.51,0,23.1-.3,23.1-23.41.05-25.62-13.67-25.58-22.72-25.58h-50.11c-8.94,0-14.04-10.17-13.37-17.02.68-6.84,5.54-11.74,9.51-11.74"/>
          <path id="L" class="cls-3" d="M299.06,171.32h0c-.01,9.35-7.63,16.94-16.98,16.94h-66.53c-9.35,0-16.92-7.59-16.91-16.94l.28-154.34c.01-9.35,7.63-16.94,16.98-16.94h4.97c9.35,0,16.92,7.59,16.91,16.94l-.25,137.4h44.58c9.35,0,16.92,7.59,16.91,16.94h.04Z"/>
        </g>
      </g>
      <g>
        <rect class="cls-1" y="219.88" width="299.06" height="42.22"/>
        <path class="cls-3" d="M6.84,220.96v20.22h-2.61v-20.22h2.61Z"/>
        <path class="cls-3" d="M11.61,230.59c0-1.5-.03-2.73-.12-3.93h2.34l.15,2.4h.06c.72-1.38,2.4-2.73,4.8-2.73,2.01,0,5.13,1.2,5.13,6.18v8.67h-2.64v-8.37c0-2.34-.87-4.29-3.36-4.29-1.74,0-3.09,1.23-3.54,2.7-.12.33-.18.78-.18,1.23v8.73h-2.64v-10.59Z"/>
        <path class="cls-3" d="M31.32,222.49v4.17h3.78v2.01h-3.78v7.83c0,1.8.51,2.82,1.98,2.82.69,0,1.2-.09,1.53-.18l.12,1.98c-.51.21-1.32.36-2.34.36-1.23,0-2.22-.39-2.85-1.11-.75-.78-1.02-2.07-1.02-3.78v-7.92h-2.25v-2.01h2.25v-3.48l2.58-.69Z"/>
        <path class="cls-3" d="M39.36,234.4c.06,3.57,2.34,5.04,4.98,5.04,1.89,0,3.03-.33,4.02-.75l.45,1.89c-.93.42-2.52.9-4.83.9-4.47,0-7.14-2.94-7.14-7.32s2.58-7.83,6.81-7.83c4.74,0,6,4.17,6,6.84,0,.54-.06.96-.09,1.23h-10.2ZM47.1,232.51c.03-1.68-.69-4.29-3.66-4.29-2.67,0-3.84,2.46-4.05,4.29h7.71Z"/>
        <path class="cls-3" d="M52.92,219.88h2.64v21.3h-2.64v-21.3Z"/>
        <path class="cls-3" d="M60,219.88h2.64v21.3h-2.64v-21.3Z"/>
        <path class="cls-3" d="M70.01,222.58c.03.9-.63,1.62-1.68,1.62-.93,0-1.59-.72-1.59-1.62s.69-1.65,1.65-1.65,1.62.72,1.62,1.65ZM67.07,241.18v-14.52h2.64v14.52h-2.64Z"/>
        <path class="cls-3" d="M86.6,226.66c-.06,1.05-.12,2.22-.12,3.99v8.43c0,3.33-.66,5.37-2.07,6.63-1.41,1.32-3.45,1.74-5.28,1.74s-3.66-.42-4.83-1.2l.66-2.01c.96.6,2.46,1.14,4.26,1.14,2.7,0,4.68-1.41,4.68-5.07v-1.62h-.06c-.81,1.35-2.37,2.43-4.62,2.43-3.6,0-6.18-3.06-6.18-7.08,0-4.92,3.21-7.71,6.54-7.71,2.52,0,3.9,1.32,4.53,2.52h.06l.12-2.19h2.31ZM83.87,232.39c0-.45-.03-.84-.15-1.2-.48-1.53-1.77-2.79-3.69-2.79-2.52,0-4.32,2.13-4.32,5.49,0,2.85,1.44,5.22,4.29,5.22,1.62,0,3.09-1.02,3.66-2.7.15-.45.21-.96.21-1.41v-2.61Z"/>
        <path class="cls-3" d="M92.33,234.4c.06,3.57,2.34,5.04,4.98,5.04,1.89,0,3.03-.33,4.02-.75l.45,1.89c-.93.42-2.52.9-4.83.9-4.47,0-7.14-2.94-7.14-7.32s2.58-7.83,6.81-7.83c4.74,0,6,4.17,6,6.84,0,.54-.06.96-.09,1.23h-10.2ZM100.07,232.51c.03-1.68-.69-4.29-3.66-4.29-2.67,0-3.84,2.46-4.05,4.29h7.71Z"/>
        <path class="cls-3" d="M105.89,230.59c0-1.5-.03-2.73-.12-3.93h2.34l.15,2.4h.06c.72-1.38,2.4-2.73,4.8-2.73,2.01,0,5.13,1.2,5.13,6.18v8.67h-2.64v-8.37c0-2.34-.87-4.29-3.36-4.29-1.74,0-3.09,1.23-3.54,2.7-.12.33-.18.78-.18,1.23v8.73h-2.64v-10.59Z"/>
        <path class="cls-3" d="M125.6,222.49v4.17h3.78v2.01h-3.78v7.83c0,1.8.51,2.82,1.98,2.82.69,0,1.2-.09,1.53-.18l.12,1.98c-.51.21-1.32.36-2.34.36-1.23,0-2.22-.39-2.85-1.11-.75-.78-1.02-2.07-1.02-3.78v-7.92h-2.25v-2.01h2.25v-3.48l2.58-.69Z"/>
        <path class="cls-3" d="M138.8,221.23c1.32-.27,3.21-.42,5.01-.42,2.79,0,4.59.51,5.85,1.65,1.02.9,1.59,2.28,1.59,3.84,0,2.67-1.68,4.44-3.81,5.16v.09c1.56.54,2.49,1.98,2.97,4.08.66,2.82,1.14,4.77,1.56,5.55h-2.7c-.33-.57-.78-2.31-1.35-4.83-.6-2.79-1.68-3.84-4.05-3.93h-2.46v8.76h-2.61v-19.95ZM141.41,230.44h2.67c2.79,0,4.56-1.53,4.56-3.84,0-2.61-1.89-3.75-4.65-3.78-1.26,0-2.16.12-2.58.24v7.38Z"/>
        <path class="cls-3" d="M168.11,233.8c0,5.37-3.72,7.71-7.23,7.71-3.93,0-6.96-2.88-6.96-7.47,0-4.86,3.18-7.71,7.2-7.71s6.99,3.03,6.99,7.47ZM156.59,233.95c0,3.18,1.83,5.58,4.41,5.58s4.41-2.37,4.41-5.64c0-2.46-1.23-5.58-4.35-5.58s-4.47,2.88-4.47,5.64Z"/>
        <path class="cls-3" d="M171.32,241.18c.06-.99.12-2.46.12-3.75v-17.55h2.61v9.12h.06c.93-1.62,2.61-2.67,4.95-2.67,3.6,0,6.15,3,6.12,7.41,0,5.19-3.27,7.77-6.51,7.77-2.1,0-3.78-.81-4.86-2.73h-.09l-.12,2.4h-2.28ZM174.05,235.36c0,.33.06.66.12.96.51,1.83,2.04,3.09,3.96,3.09,2.76,0,4.41-2.25,4.41-5.58,0-2.91-1.5-5.4-4.32-5.4-1.8,0-3.48,1.23-4.02,3.24-.06.3-.15.66-.15,1.08v2.61Z"/>
        <path class="cls-3" d="M201.65,233.8c0,5.37-3.72,7.71-7.23,7.71-3.93,0-6.96-2.88-6.96-7.47,0-4.86,3.18-7.71,7.2-7.71s6.99,3.03,6.99,7.47ZM190.13,233.95c0,3.18,1.83,5.58,4.41,5.58s4.41-2.37,4.41-5.64c0-2.46-1.23-5.58-4.35-5.58s-4.47,2.88-4.47,5.64Z"/>
        <path class="cls-3" d="M208.16,222.49v4.17h3.78v2.01h-3.78v7.83c0,1.8.51,2.82,1.98,2.82.69,0,1.2-.09,1.53-.18l.12,1.98c-.51.21-1.32.36-2.34.36-1.23,0-2.22-.39-2.85-1.11-.75-.78-1.02-2.07-1.02-3.78v-7.92h-2.25v-2.01h2.25v-3.48l2.58-.69Z"/>
        <path class="cls-3" d="M217.85,222.58c.03.9-.63,1.62-1.68,1.62-.93,0-1.59-.72-1.59-1.62s.69-1.65,1.65-1.65,1.62.72,1.62,1.65ZM214.91,241.18v-14.52h2.64v14.52h-2.64Z"/>
        <path class="cls-3" d="M232.28,240.64c-.69.36-2.22.84-4.17.84-4.38,0-7.23-2.97-7.23-7.41s3.06-7.71,7.8-7.71c1.56,0,2.94.39,3.66.75l-.6,2.04c-.63-.36-1.62-.69-3.06-.69-3.33,0-5.13,2.46-5.13,5.49,0,3.36,2.16,5.43,5.04,5.43,1.5,0,2.49-.39,3.24-.72l.45,1.98Z"/>
        <path class="cls-3" d="M235.01,238.48c.78.51,2.16,1.05,3.48,1.05,1.92,0,2.82-.96,2.82-2.16,0-1.26-.75-1.95-2.7-2.67-2.61-.93-3.84-2.37-3.84-4.11,0-2.34,1.89-4.26,5.01-4.26,1.47,0,2.76.42,3.57.9l-.66,1.92c-.57-.36-1.62-.84-2.97-.84-1.56,0-2.43.9-2.43,1.98,0,1.2.87,1.74,2.76,2.46,2.52.96,3.81,2.22,3.81,4.38,0,2.55-1.98,4.35-5.43,4.35-1.59,0-3.06-.39-4.08-.99l.66-2.01Z"/>
        <path class="cls-3" d="M253.7,220.96h2.61v18.03h8.64v2.19h-11.25v-20.22Z"/>
        <path class="cls-3" d="M275.81,241.18l-.21-1.83h-.09c-.81,1.14-2.37,2.16-4.44,2.16-2.94,0-4.44-2.07-4.44-4.17,0-3.51,3.12-5.43,8.73-5.4v-.3c0-1.2-.33-3.36-3.3-3.36-1.35,0-2.76.42-3.78,1.08l-.6-1.74c1.2-.78,2.94-1.29,4.77-1.29,4.44,0,5.52,3.03,5.52,5.94v5.43c0,1.26.06,2.49.24,3.48h-2.4ZM275.42,233.77c-2.88-.06-6.15.45-6.15,3.27,0,1.71,1.14,2.52,2.49,2.52,1.89,0,3.09-1.2,3.51-2.43.09-.27.15-.57.15-.84v-2.52Z"/>
        <path class="cls-3" d="M282.11,241.18c.06-.99.12-2.46.12-3.75v-17.55h2.61v9.12h.06c.93-1.62,2.61-2.67,4.95-2.67,3.6,0,6.15,3,6.12,7.41,0,5.19-3.27,7.77-6.51,7.77-2.1,0-3.78-.81-4.86-2.73h-.09l-.12,2.4h-2.28ZM284.84,235.36c0,.33.06.66.12.96.51,1.83,2.04,3.09,3.96,3.09,2.76,0,4.41-2.25,4.41-5.58,0-2.91-1.5-5.4-4.32-5.4-1.8,0-3.48,1.23-4.02,3.24-.06.3-.15.66-.15,1.08v2.61Z"/>
      </g>
      <line class="cls-2" x1="5.31" y1="207.22" x2="293.75" y2="207.22"/>
    </g>
  </g>
</svg>